<?xml version="1.0" encoding="utf-8"?>
<!-- Generator: Adobe Illustrator 19.2.0, SVG Export Plug-In . SVG Version: 6.00 Build 0)  -->
<svg version="1.1" id="Layer_1" xmlns="http://www.w3.org/2000/svg" xmlns:xlink="http://www.w3.org/1999/xlink" x="0px" y="0px"
	 viewBox="0 0 144 144" style="enable-background:new 0 0 144 144;" xml:space="preserve">
<style type="text/css">
	.st0{fill:#555759;}
</style>
<path class="st0" d="M54.9,139.5c0-22.6,0-45,0-67.6c-4.7,0-9.3,0-14.1,0c0-7.8,0-15.4,0-23.2c4.6,0,9.2,0,14,0c0-0.8,0.1-1.4,0.1-2
	c0.1-6.7-0.1-13.5,0.2-20.1c0.4-7.7,3.6-14.2,10.6-18.1c4.9-2.8,10.4-3.7,15.9-3.8c6.8-0.1,13.7,0,20.5,0c0.3,0,0.6,0.1,1,0.2
	c0,7.8,0,15.5,0,23.5c-0.6,0-1.2,0.1-1.8,0.1c-4.3,0-8.6,0-12.9,0c-4.5,0-6.1,1.6-6.2,6.1c0,4.7,0,9.4,0,14.2c7,0,13.9,0,20.9,0
	c-0.2,2.6-0.4,5-0.6,7.4c-0.4,4.7-0.9,9.5-1.2,14.2c-0.1,1.1-0.5,1.4-1.5,1.3c-5.2,0-10.4,0-15.6,0c-0.6,0-1.2,0-2,0
	c0,22.7,0,45.3,0,68C73.1,139.5,64.1,139.5,54.9,139.5z"/>
</svg>
