<?xml version="1.0" encoding="utf-8"?>
<!-- Generator: Adobe Illustrator 19.2.0, SVG Export Plug-In . SVG Version: 6.00 Build 0)  -->
<svg version="1.1" id="Layer_1" xmlns="http://www.w3.org/2000/svg" xmlns:xlink="http://www.w3.org/1999/xlink" x="0px" y="0px"
	 viewBox="0 0 144 144" style="enable-background:new 0 0 144 144;" xml:space="preserve">
<style type="text/css">
	.st0{fill:#555759;}
</style>
<g>
	<path class="st0" d="M77.3,121.5c-8.1,0-16.2,0-24.2,0c0.1-24.3,0.3-48.5,0-72.8c0.3-0.1,23.6-0.1,24.2,0c0,3.4,0,6.7,0,10.1
		c0,0,0.1,0,0.1,0c0.1-0.1,0.2-0.2,0.3-0.4c1.4-2.1,3-4,4.9-5.7c3.1-2.7,6.7-4.4,10.7-5.2c3.2-0.6,6.3-0.7,9.5-0.4
		c3.2,0.3,6.4,1.2,9.3,2.6c4.7,2.3,8.3,5.9,10.8,10.5c1.6,2.9,2.6,6,3.3,9.3c0.7,3.3,1,6.7,1,10c0,13.8,0,27.5,0,41.3
		c0,0.2,0,0.4,0,0.5c0,0,0,0-0.1,0.1c0,0,0,0,0,0c-0.1,0-0.1,0-0.2,0c-7.9,0-15.8,0-23.7,0c0,0-0.1,0-0.2-0.1c0-0.2,0-0.4,0-0.5
		c0-6.4,0-12.7,0-19.1c0-6.6,0-13.1,0-19.7c0-2.1-0.2-4.1-0.6-6.1c-0.3-1.5-0.8-2.9-1.5-4.2c-1.7-3.3-4.5-5.1-8.1-5.6
		c-2.1-0.3-4.3-0.1-6.3,0.6c-2.8,1-4.9,2.8-6.6,5.2c-0.9,1.4-1.7,2.9-2,4.5c-0.3,1.3-0.3,2.6-0.3,4c0,13.5,0,26.9,0,40.4
		C77.3,121.1,77.3,121.3,77.3,121.5z"/>
	<path class="st0" d="M15.5,48.7c8.1,0,16.1,0,24.1,0c0.1,0.3,0.1,72.2,0,72.8c-8,0-16.1,0-24.1,0C15.5,97.2,15.5,73,15.5,48.7z"/>
	<path class="st0" d="M27.8,13.5c2,0,4,0.3,6,1.1c3.9,1.7,6.3,4.6,7.2,8.7c0.6,2.8,0.4,5.6-0.9,8.3c-1.5,3.1-3.9,5.1-7.1,6.2
		c-2.2,0.8-4.4,1-6.7,0.8c-1.9-0.1-3.8-0.6-5.5-1.5c-3.8-2-6-5.2-6.6-9.5c-0.3-2.6,0-5,1.2-7.3c1.5-3,3.9-4.9,7-6
		C24.1,13.8,25.9,13.5,27.8,13.5z"/>
</g>
</svg>
