<?xml version="1.0" encoding="utf-8"?>
<!-- Generator: Adobe Illustrator 19.2.0, SVG Export Plug-In . SVG Version: 6.00 Build 0)  -->
<svg version="1.1" id="Layer_1" xmlns="http://www.w3.org/2000/svg" xmlns:xlink="http://www.w3.org/1999/xlink" x="0px" y="0px"
	 viewBox="0 0 144 144" style="enable-background:new 0 0 144 144;" xml:space="preserve">
<style type="text/css">
	.st0{fill:#555759;}
</style>
<path class="st0" d="M137.2,16.9c-3.1,4.6-6.2,9.1-9.3,13.7c0.1,0.3,0.3,0.5,0.4,0.8c3.8-1.2,7.6-2.3,11.3-3.5
	c0.2,0.2,0.4,0.5,0.5,0.7c-1.5,1.9-2.8,4.1-4.6,5.6c-6.5,5.3-8.4,12.1-9.2,20.4c-2.3,23-12.2,42.5-29.6,57.9
	c-12.4,11-27.1,16.3-43.4,17.7c-16.2,1.4-31.4-2.4-45.6-10.3c-0.9-0.5-1.8-1.1-3-1.9c7.2-1,14-1.5,20.6-2.9c6.7-1.4,12.7-4.7,18.6-9
	c-2.2-0.8-4-1.4-5.8-2.1c-7.6-3-13.9-7.5-17.6-15c-1.7-3.5-1.3-4.1,2.6-4.2c2.1,0,4.1,0,6.3-0.3c-7.2-3.6-13.6-8-17-15.4
	c-1.9-4.2-2.9-8.8-4.2-13.2c0.3-0.2,0.5-0.4,0.8-0.7c3.3,1,6.7,1.9,10,2.9c0.3-0.2,0.6-0.4,0.9-0.6C9.1,46,6.9,33.3,13.1,18.5
	c15.3,17.8,33.7,29.3,57.4,31.1c0-2.2,0-4.3,0-6.5C70.4,29,80,16.5,93.1,14.1c8.4-1.6,16.2,0.1,22.8,5.7c2.7,2.3,5.2,2.7,8.4,1.3
	c3.9-1.8,8.1-3.2,12.1-4.8C136.7,16.4,136.9,16.7,137.2,16.9z"/>
</svg>
